<?xml version="1.0" standalone="no"?>
<!DOCTYPE svg PUBLIC "-//W3C//DTD SVG 20010904//EN"
 "http://www.w3.org/TR/2001/REC-SVG-20010904/DTD/svg10.dtd">
<svg version="1.0" xmlns="http://www.w3.org/2000/svg"
 width="447.000000pt" height="113.000000pt" viewBox="0 0 447.000000 113.000000"
 preserveAspectRatio="xMidYMid meet">
<metadata>
Created by potrace 1.16, written by Peter Selinger 2001-2019
</metadata>
<g transform="translate(0.000000,113.000000) scale(0.100000,-0.100000)"
fill="#000000" stroke="none">
<path d="M447 1075 c-265 -67 -437 -317 -399 -579 19 -134 100 -270 201 -340
22 -15 45 -26 52 -24 6 2 -8 17 -30 33 -53 36 -127 123 -115 135 5 5 100 45
211 89 l201 80 208 -84 c298 -122 298 -118 7 49 -111 64 -205 116 -207 116 -3
0 -7 -10 -9 -22 l-4 -23 -2 23 c0 12 -3 22 -5 22 -2 0 -95 -52 -206 -116 -226
-129 -232 -132 -229 -113 1 8 -4 28 -11 44 -41 98 -51 226 -25 324 48 184 202
328 385 361 36 7 73 16 83 21 16 9 17 -6 17 -241 0 -137 2 -250 5 -250 4 0 20
7 36 16 29 14 32 14 52 -3 l22 -18 -19 23 c-15 17 -26 68 -47 215 -16 105 -29
205 -29 221 l0 29 52 -7 c28 -4 77 -18 110 -31 32 -13 58 -21 58 -17 0 4 5 0
10 -8 5 -8 14 -16 20 -16 5 -1 14 -2 20 -3 5 0 9 -7 7 -13 -1 -7 3 -12 10 -11
6 1 34 -22 62 -52 58 -64 108 -180 118 -275 3 -33 9 -60 14 -60 4 0 10 -8 13
-17 3 -10 4 14 1 52 -11 201 -162 395 -354 456 -86 27 -209 33 -284 14z"/>
<path d="M964 952 c54 -61 103 -139 93 -149 -3 -2 4 -30 15 -61 26 -73 34
-203 19 -284 -21 -105 -65 -184 -150 -268 -82 -82 -147 -119 -253 -146 -80
-21 -220 -14 -299 14 -65 23 -100 14 -42 -11 81 -34 121 -41 223 -41 86 1 118
5 176 26 187 66 329 226 369 415 40 186 -12 365 -143 501 l-64 67 56 -63z"/>
<path d="M501 744 c0 -11 3 -14 6 -6 3 7 2 16 -1 19 -3 4 -6 -2 -5 -13z"/>
<path d="M492 670 c0 -14 2 -19 5 -12 2 6 2 18 0 25 -3 6 -5 1 -5 -13z"/>
<path d="M1448 635 c21 -16 22 -20 16 -153 -5 -120 -9 -139 -26 -154 -20 -18
-19 -18 28 -17 40 0 45 2 26 10 -23 9 -23 9 -16 146 4 76 8 139 9 141 1 2 26
-61 55 -140 29 -79 54 -144 55 -146 2 -2 27 63 56 143 l54 146 7 -133 c3 -73
4 -136 1 -141 -3 -5 -15 -12 -27 -17 -15 -6 0 -9 49 -9 48 0 63 3 49 9 -25 10
-34 64 -34 211 0 90 1 97 23 107 19 9 17 11 -23 11 l-45 1 -45 -125 c-25 -69
-47 -125 -50 -125 -3 0 -25 56 -50 125 l-45 125 -45 0 c-43 0 -44 -1 -22 -15z"/>
<path d="M2830 641 c-25 -7 -25 -7 -2 -13 19 -5 22 -13 22 -59 0 -50 -1 -51
-18 -36 -30 28 -76 21 -106 -14 -44 -52 -35 -173 15 -199 27 -15 75 -12 89 5
11 14 14 13 25 -1 10 -14 17 -15 41 -6 17 6 22 11 12 11 -16 1 -18 16 -18 161
0 175 3 169 -60 151z m-5 -121 c44 -49 23 -200 -28 -200 -43 0 -61 33 -61 110
0 53 4 74 18 89 24 26 48 27 71 1z"/>
<path d="M3518 634 c22 -18 23 -24 20 -159 -3 -137 -3 -140 -28 -152 -22 -11
-14 -13 63 -13 125 0 167 25 167 100 0 22 -9 40 -28 59 -29 26 -29 26 -8 42
28 22 27 82 -2 112 -19 19 -35 23 -115 26 -91 3 -92 3 -69 -15z m150 -16 c6
-6 12 -30 12 -54 0 -49 -24 -74 -72 -74 l-28 0 0 76 0 76 38 -7 c20 -4 43 -11
50 -17z m16 -160 c40 -57 7 -129 -60 -132 l-39 -1 -3 78 -3 77 45 0 c35 0 48
-5 60 -22z"/>
<path d="M11 597 c-11 -21 -12 -40 -2 -103 19 -126 82 -240 174 -316 l52 -42
-56 60 c-92 98 -137 201 -147 341 -7 81 -8 85 -21 60z"/>
<path d="M440 579 l-45 -41 42 32 c37 27 61 51 51 50 -2 0 -23 -19 -48 -41z"/>
<path d="M2406 551 c-3 -4 -28 -6 -55 -3 -58 5 -83 -13 -102 -77 -14 -48 -1
-109 32 -142 30 -30 92 -26 118 7 21 27 28 54 14 54 -5 0 -15 -15 -23 -33 -20
-43 -62 -49 -86 -12 -23 36 -23 134 0 169 25 39 74 36 89 -4 15 -41 22 -38 22
10 0 42 -1 45 -9 31z"/>
<path d="M3320 552 c0 -4 -23 -8 -51 -7 -43 0 -54 -4 -70 -25 -29 -39 -15 -67
52 -101 62 -31 74 -53 43 -83 -16 -17 -51 -21 -70 -8 -6 4 -18 21 -27 37 l-16
30 -1 -44 c0 -36 2 -42 14 -32 10 8 16 9 21 1 3 -5 24 -10 46 -10 51 0 81 29
77 73 -3 28 -11 36 -60 62 -65 34 -76 50 -52 76 27 30 61 24 84 -13 l20 -33 0
43 c0 23 -2 42 -5 42 -3 0 -5 -4 -5 -8z"/>
<path d="M4040 550 c-17 -4 -21 -8 -12 -14 8 -5 12 -39 12 -111 0 -90 -2 -104
-17 -108 -10 -3 7 -5 37 -6 42 0 51 2 38 10 -15 8 -18 24 -18 90 0 95 10 119
48 119 45 0 52 -16 52 -112 0 -72 -3 -89 -17 -97 -14 -8 -3 -10 42 -10 44 0
54 3 38 9 -19 8 -21 17 -25 105 -2 82 -6 99 -22 111 -26 18 -80 18 -96 -1 -17
-20 -28 -19 -32 3 -2 14 -9 17 -28 12z"/>
<path d="M1872 543 c-23 -9 -42 -61 -42 -113 0 -84 28 -119 96 -120 44 0 84
30 84 65 0 13 -6 8 -23 -16 -16 -25 -31 -35 -54 -37 -37 -4 -57 20 -68 81 l-7
37 76 0 76 0 0 29 c0 15 -9 40 -21 55 -16 21 -28 26 -62 25 -23 0 -48 -3 -55
-6z m94 -39 c20 -47 10 -56 -52 -52 -46 3 -49 5 -46 28 5 34 30 60 59 60 18 0
28 -9 39 -36z"/>
<path d="M2063 543 c15 -4 17 -18 17 -113 0 -95 -2 -109 -17 -113 -10 -3 9 -5
42 -5 45 -1 54 1 38 8 -21 9 -23 16 -23 84 0 82 10 120 35 129 11 5 19 -1 25
-19 12 -31 35 -27 35 7 0 20 -6 25 -31 27 -19 2 -38 -3 -48 -13 -14 -15 -17
-15 -22 -1 -4 10 -17 16 -38 15 -17 -1 -23 -3 -13 -6z"/>
<path d="M2497 532 c-53 -58 -46 -180 12 -212 30 -16 87 -12 109 8 23 20 39
62 23 62 -6 0 -11 -7 -11 -15 0 -23 -37 -55 -64 -55 -33 0 -66 44 -66 86 l0
34 75 0 c56 0 75 3 75 14 0 28 -23 77 -40 86 -31 16 -95 12 -113 -8z m97 -14
c9 -12 16 -33 16 -45 0 -21 -4 -23 -56 -23 l-56 0 6 32 c3 17 11 37 17 45 17
20 56 16 73 -9z"/>
<path d="M2992 543 c-23 -9 -42 -61 -42 -113 0 -84 28 -119 96 -120 44 0 84
30 84 65 0 13 -6 8 -23 -16 -16 -25 -31 -35 -54 -37 -37 -4 -57 20 -68 81 l-7
37 76 0 76 0 0 29 c0 15 -9 40 -21 55 -16 21 -28 26 -62 25 -23 0 -48 -3 -55
-6z m94 -39 c20 -47 10 -56 -52 -52 -46 3 -49 5 -46 28 5 34 30 60 59 60 18 0
28 -9 39 -36z"/>
<path d="M3820 525 c-19 -20 -25 -39 -28 -88 -4 -57 -1 -66 23 -95 23 -27 34
-32 71 -32 49 0 84 25 84 61 0 19 -3 17 -23 -12 -41 -61 -103 -46 -117 29 -4
23 -5 44 -2 47 3 3 38 5 79 5 l73 0 -6 28 c-12 53 -37 77 -85 80 -37 2 -49 -1
-69 -23z m99 2 c6 -8 14 -28 17 -45 l7 -32 -57 0 c-52 0 -56 2 -56 23 0 52 60
88 89 54z"/>
<path d="M4290 518 c1 -30 2 -31 12 -13 6 11 16 23 22 27 14 10 86 10 86 1 0
-5 -29 -55 -65 -113 l-64 -105 81 -3 c44 -2 82 -1 84 1 2 2 6 19 9 38 l6 34
-16 -27 c-17 -30 -46 -42 -89 -36 l-27 3 62 100 c34 55 64 105 66 112 4 10
-16 13 -81 13 l-86 0 0 -32z"/>
<path d="M369 523 c-13 -16 -12 -17 4 -4 16 13 21 21 13 21 -2 0 -10 -8 -17
-17z"/>
<path d="M3380 444 c0 -12 10 -14 52 -12 74 4 77 28 4 28 -44 0 -56 -3 -56
-16z"/>
</g>
</svg>
